<?xml version="1.0" encoding="UTF-8" standalone="no"?>
<svg width="119px" height="25px" viewBox="0 0 119 25" version="1.1" xmlns="http://www.w3.org/2000/svg" xmlns:xlink="http://www.w3.org/1999/xlink">
    <!-- Generator: Sketch 3.7.2 (28276) - http://www.bohemiancoding.com/sketch -->
    <title>Group</title>
    <desc>Created with Sketch.</desc>
    <defs></defs>
    <g id="Page-1" stroke="none" stroke-width="1" fill="none" fill-rule="evenodd">
        <g id="icon-kerr.in" transform="translate(-5.000000, -5.000000)" fill="#FFFFFF">
            <g id="Group" transform="translate(5.000000, 5.000000)">
                <path d="M12.5,25 C19.4035594,25 25,19.4035594 25,12.5 C25,5.59644063 19.4035594,0 12.5,0 C5.59644063,0 0,5.59644063 0,12.5 C0,19.4035594 5.59644063,25 12.5,25 Z M17.5,8 C18.3284271,8 19,7.32842712 19,6.5 C19,5.67157288 18.3284271,5 17.5,5 C16.6715729,5 16,5.67157288 16,6.5 C16,7.32842712 16.6715729,8 17.5,8 Z M19.5,13 C20.3284271,13 21,12.3284271 21,11.5 C21,10.6715729 20.3284271,10 19.5,10 C18.6715729,10 18,10.6715729 18,11.5 C18,12.3284271 18.6715729,13 19.5,13 Z" id="Combined-Shape"></path>
                <text id="SquashScorer" font-family="Roboto-Medium, Roboto" font-size="14" font-weight="400">
                    <tspan x="31" y="18">SquashScorer</tspan>
                </text>
            </g>
        </g>
    </g>
</svg>