<svg xmlns="http://www.w3.org/2000/svg" width="64" height="57" viewBox="0 0 64 57"><g fill="#FFF"><path d="M15.92 21.308H9.732L8.644 26H2.66L9.392 3.9h7.072L23.196 26h-6.188l-1.088-4.692zm-1.054-4.522l-.374-1.53c-.272-1.065-.544-2.22-.816-3.468-.272-1.247-.544-2.425-.816-3.536h-.136c-.25 1.134-.505 2.318-.765 3.553-.262 1.235-.528 2.386-.8 3.45l-.374 1.53h4.08zM23.502 15.12c0-1.858.294-3.507.884-4.947.59-1.44 1.382-2.652 2.38-3.638.998-.986 2.147-1.74 3.45-2.26 1.304-.522 2.67-.783 4.098-.783 1.405 0 2.68.29 3.824.867s2.113 1.263 2.908 2.056L37.85 10.02c-.544-.476-1.077-.844-1.6-1.105-.52-.26-1.144-.39-1.868-.39-.658 0-1.287.147-1.888.44-.6.296-1.122.715-1.564 1.26-.442.543-.793 1.212-1.054 2.005-.26.794-.39 1.69-.39 2.686 0 2.085.435 3.684 1.308 4.794.872 1.11 2.023 1.666 3.45 1.666.862 0 1.605-.164 2.228-.493.624-.328 1.174-.753 1.65-1.275l3.195 3.536c-.952 1.088-2.04 1.904-3.264 2.448-1.225.544-2.516.816-3.877.816-1.45 0-2.82-.233-4.113-.697s-2.426-1.166-3.4-2.107c-.975-.94-1.746-2.12-2.312-3.536-.564-1.416-.848-3.066-.848-4.947zM43.868 3.9h14.28v4.896h-8.433v3.468h7.208v4.896h-7.208v3.944h8.772V26h-14.62V3.9z"/></g><g fill="#DFE7F4"><path d="M3.952 31.872h2.59c.7 0 1.33.09 1.89.267.56.176 1.04.448 1.442.817s.71.838.924 1.406c.215.57.322 1.246.322 2.03 0 .784-.107 1.466-.322 2.044-.215.58-.518 1.058-.91 1.436-.392.378-.86.66-1.407.848-.545.186-1.154.28-1.826.28H3.952v-9.128zm2.464 7.462c.383 0 .732-.05 1.05-.154.317-.102.59-.268.82-.496.228-.23.405-.53.53-.904.127-.373.19-.834.19-1.385 0-.54-.063-.996-.19-1.365s-.302-.663-.53-.883c-.23-.22-.503-.375-.82-.47-.317-.092-.667-.14-1.05-.14h-.392v5.797h.392zM18.61 41l-1.75-3.29h-1.12V41h-2.072v-9.128h3.29c.485 0 .94.047 1.365.14.424.094.798.25 1.12.47.322.22.576.51.763.874.187.365.28.817.28 1.358 0 .673-.15 1.226-.448 1.66-.3.433-.69.757-1.176.972L20.92 41h-2.31zm-2.87-4.928h1.05c.54 0 .954-.114 1.24-.344.284-.23.426-.566.426-1.015s-.143-.76-.427-.938c-.286-.177-.7-.266-1.24-.266h-1.05v2.562zM23.118 31.872h2.072V41h-2.072v-9.128zM26.982 31.872h2.184l1.106 4.256c.13.504.25.99.357 1.463.106.473.23.96.37 1.465h.056c.14-.505.264-.992.37-1.464s.227-.958.358-1.462l1.078-4.256h2.114L32.218 41H29.74l-2.758-9.128zM36.768 31.872h2.072V41h-2.072v-9.128zM41.808 31.872h2.113l2.38 4.536.91 2.016h.058c-.047-.484-.104-1.026-.168-1.624-.065-.597-.1-1.167-.1-1.708v-3.22h1.96V41h-2.113l-2.38-4.55-.896-1.988h-.055c.046.504.103 1.046.168 1.624.064.58.098 1.14.098 1.68V41h-1.973v-9.128zM51.51 36.492c0-.756.118-1.43.356-2.023.237-.593.56-1.095.966-1.506s.882-.724 1.428-.938c.546-.214 1.127-.32 1.743-.32.644 0 1.2.12 1.673.363.472.24.86.517 1.17.825l-1.135 1.273c-.232-.215-.473-.383-.72-.504-.248-.12-.567-.182-.96-.182-.354 0-.68.067-.973.203-.294.135-.546.328-.756.58s-.375.56-.496.924c-.12.364-.182.774-.182 1.23 0 .944.212 1.675.637 2.192s1.07.777 1.938.777c.187 0 .366-.024.54-.07.17-.048.313-.118.426-.212V37.54h-1.512v-1.68h3.346v4.2c-.168.14-.362.278-.58.413-.22.136-.46.255-.722.357-.262.103-.542.184-.84.245-.3.06-.607.09-.925.09-.614 0-1.19-.1-1.728-.3-.537-.2-1.006-.497-1.407-.89-.4-.392-.717-.88-.945-1.462-.227-.58-.34-1.255-.34-2.02z"/></g><g fill="#DFE7F4"><path d="M4.666 51.438c.327.28.686.51 1.078.687s.78.267 1.162.267c.43 0 .75-.08.96-.238.21-.16.314-.373.314-.645 0-.14-.03-.263-.09-.364-.062-.104-.15-.194-.267-.273-.117-.08-.257-.154-.42-.225l-.54-.232-1.175-.504c-.243-.094-.474-.215-.693-.364-.22-.15-.416-.324-.588-.524-.173-.2-.31-.435-.413-.7-.103-.267-.154-.568-.154-.904 0-.373.082-.726.245-1.057.163-.332.387-.62.672-.868s.625-.44 1.022-.58c.396-.142.832-.21 1.308-.21.532 0 1.057.102 1.575.307s.973.504 1.365.896L8.992 47.21c-.3-.233-.6-.413-.903-.54s-.638-.187-1.002-.187c-.354 0-.637.072-.847.217-.21.145-.314.348-.314.61 0 .14.035.257.105.355.07.1.17.187.295.267.126.078.275.153.448.223s.357.147.553.232l1.162.475c.56.225 1 .533 1.323.925.323.392.484.91.484 1.554 0 .384-.077.745-.23 1.086s-.38.64-.673.896c-.293.258-.652.463-1.077.617-.425.152-.908.23-1.45.23-.596 0-1.19-.11-1.784-.33-.594-.22-1.128-.548-1.604-.987l1.19-1.415zM12.226 49.492c0-.756.117-1.43.35-2.023.233-.593.548-1.095.945-1.506.398-.41.86-.724 1.387-.938.527-.214 1.085-.32 1.673-.32.57 0 1.085.118 1.547.355.462.24.847.517 1.155.835l-1.134 1.273c-.233-.215-.467-.383-.7-.504-.233-.12-.514-.182-.84-.182-.317 0-.614.067-.89.203-.274.135-.515.328-.72.58-.205.252-.366.56-.483.924-.117.364-.175.774-.175 1.23 0 .944.2 1.675.602 2.192.4.518.938.777 1.61.777.382 0 .71-.076.987-.226s.524-.346.748-.588l1.134 1.246c-.383.447-.82.783-1.31 1.008-.49.225-1.02.336-1.588.336-.588 0-1.144-.1-1.666-.3-.523-.202-.98-.498-1.372-.89-.392-.393-.7-.88-.924-1.463-.224-.58-.336-1.255-.336-2.02zM21.62 44.872h2.072v3.515h3.15v-3.515H28.9V54h-2.058v-3.81h-3.15V54H21.62v-9.128zM35.578 54.168c-.616 0-1.18-.11-1.688-.33s-.945-.533-1.31-.943c-.363-.41-.645-.91-.846-1.498-.2-.588-.3-1.256-.3-2.002 0-.747.1-1.412.3-1.996.2-.583.483-1.073.847-1.47.365-.397.8-.7 1.31-.91.51-.21 1.07-.315 1.688-.315.615 0 1.178.104 1.687.315.51.21.944.516 1.31.916.363.402.646.895.847 1.478.2.583.3 1.243.3 1.98 0 .747-.1 1.415-.3 2.003-.2.588-.483 1.087-.847 1.498-.365.41-.8.725-1.31.944s-1.072.328-1.687.328zm0-1.777c.625 0 1.12-.27 1.483-.805s.547-1.267.547-2.19c0-.915-.182-1.63-.546-2.143s-.857-.77-1.482-.77c-.616 0-1.11.256-1.478.77s-.553 1.228-.553 2.143c0 .457.05.87.147 1.238.098.37.232.684.405.945s.385.462.637.602c.253.14.533.21.84.21zM45.98 54.168c-.617 0-1.18-.11-1.69-.33s-.944-.533-1.308-.943c-.364-.41-.646-.91-.848-1.498-.2-.588-.3-1.256-.3-2.002 0-.747.1-1.412.3-1.996.2-.583.483-1.073.848-1.47.363-.397.8-.7 1.31-.91.508-.21 1.07-.315 1.687-.315.614 0 1.177.104 1.686.315.51.21.945.516 1.31.916.363.402.645.895.847 1.478.2.583.3 1.243.3 1.98 0 .747-.1 1.415-.3 2.003-.2.588-.483 1.087-.848 1.498-.363.41-.8.725-1.31.944s-1.07.328-1.686.328zm0-1.777c.624 0 1.118-.27 1.482-.805s.546-1.267.546-2.19c0-.915-.182-1.63-.546-2.143s-.858-.77-1.483-.77c-.617 0-1.11.256-1.48.77s-.552 1.228-.552 2.143c0 .457.05.87.146 1.238.1.37.233.684.406.945s.385.462.637.602c.254.14.534.21.842.21zM52.672 44.872h2.07v7.392h3.6V54h-5.67v-9.128z"/></g></svg>