<svg xmlns="http://www.w3.org/2000/svg" width="129.524" height="25.192" viewBox="0 0 129.524 25.192"><g fill="#FFF"><path d="M14.907 17.152c0 1.676-.603 2.996-1.81 3.96s-2.883 1.448-5.033 1.448c-1.98 0-3.732-.373-5.256-1.117v-3.656c1.252.56 2.312.952 3.18 1.18s1.66.344 2.38.344c.863 0 1.525-.164 1.987-.494s.692-.82.692-1.473c0-.364-.102-.688-.305-.972-.203-.282-.5-.556-.895-.817s-1.195-.682-2.406-1.257c-1.133-.533-1.984-1.045-2.55-1.536s-1.02-1.062-1.36-1.714-.506-1.414-.506-2.285c0-1.64.557-2.932 1.67-3.87s2.65-1.41 4.614-1.41c.965 0 1.885.114 2.76.343s1.793.55 2.75.965l-1.27 3.06c-.99-.406-1.81-.69-2.457-.85s-1.282-.243-1.908-.243c-.745 0-1.316.173-1.714.52s-.597.8-.597 1.36c0 .346.082.648.242.907s.417.508.768.75 1.183.674 2.495 1.3c1.735.83 2.924 1.66 3.567 2.495s.965 1.854.965 3.065zM16.892 4.444c0-1.26.703-1.892 2.107-1.892s2.106.63 2.106 1.892c0 .6-.176 1.068-.527 1.403s-.88.5-1.582.5c-1.404.002-2.106-.633-2.106-1.903zm4.037 17.863h-3.873V8.113h3.872v14.194zM30.06 19.476c.678 0 1.49-.147 2.44-.444v2.882c-.966.432-2.15.647-3.556.647-1.55 0-2.677-.39-3.383-1.173s-1.06-1.957-1.06-3.523V11.02h-1.853V9.384l2.133-1.295 1.117-2.996h2.476v3.02h3.974v2.908h-3.974v6.843c0 .55.154.957.463 1.22s.717.393 1.225.393zM50.356 22.307l-.52-1.815h-.204c-.415.66-1.003 1.17-1.765 1.53-.762.36-1.63.54-2.603.54-1.667 0-2.924-.447-3.77-1.34-.847-.894-1.27-2.178-1.27-3.854V8.113h3.87v8.29c0 1.024.183 1.792.547 2.304.365.513.945.77 1.74.77 1.083 0 1.866-.363 2.35-1.086.48-.724.723-1.923.723-3.6V8.114h3.872v14.193h-2.97zM64.376 7.847c1.676 0 2.987.654 3.936 1.96s1.422 3.1 1.422 5.377c0 2.345-.488 4.16-1.467 5.446-.977 1.287-2.308 1.93-3.992 1.93-1.667 0-2.975-.605-3.923-1.815h-.267l-.647 1.562H56.48V2.553h3.872V7.15c0 .583-.05 1.518-.152 2.805h.152c.905-1.406 2.247-2.108 4.024-2.108zm-1.244 3.097c-.957 0-1.655.294-2.095.882s-.668 1.56-.686 2.914v.42c0 1.522.228 2.614.68 3.274s1.17.99 2.152.99c.795 0 1.428-.366 1.898-1.1.47-.73.705-1.795.705-3.19s-.237-2.445-.71-3.143-1.122-1.046-1.943-1.046zM82.077 22.307l-.52-1.815h-.204c-.415.66-1.003 1.17-1.765 1.53-.762.36-1.63.54-2.603.54-1.667 0-2.924-.447-3.77-1.34-.848-.894-1.27-2.178-1.27-3.854V8.113h3.87v8.29c0 1.024.183 1.792.547 2.304.364.513.943.77 1.74.77 1.082 0 1.865-.363 2.348-1.086.482-.724.724-1.923.724-3.6V8.114h3.872v14.193h-2.97zM103.946 18.092c0 1.455-.506 2.564-1.518 3.326-1.01.762-2.523 1.143-4.538 1.143-1.032 0-1.913-.07-2.64-.208-.73-.14-1.41-.346-2.045-.616v-3.2c.72.34 1.53.623 2.432.852.9.23 1.694.343 2.38.343 1.405 0 2.107-.405 2.107-1.218 0-.305-.093-.552-.28-.743-.186-.19-.507-.407-.964-.647-.457-.242-1.066-.523-1.828-.845-1.092-.457-1.894-.88-2.405-1.27-.513-.39-.885-.836-1.117-1.34-.233-.502-.35-1.123-.35-1.86 0-1.26.488-2.235 1.467-2.925.977-.69 2.363-1.035 4.157-1.035 1.71 0 3.373.373 4.99 1.117l-1.17 2.793c-.71-.305-1.374-.554-1.992-.75s-1.248-.29-1.892-.29c-1.143 0-1.714.308-1.714.926 0 .347.185.647.552.9.37.255 1.175.63 2.42 1.13 1.107.45 1.92.868 2.437 1.258s.897.838 1.143 1.346.368 1.11.368 1.814zM105.893 4.444c0-1.26.702-1.892 2.107-1.892s2.107.63 2.107 1.892c0 .6-.176 1.068-.526 1.403-.35.334-.878.5-1.58.5-1.405.002-2.107-.633-2.107-1.903zm4.037 17.863h-3.872V8.113h3.872v14.194zM119.062 19.476c.677 0 1.49-.147 2.438-.444v2.882c-.965.432-2.15.647-3.555.647-1.55 0-2.677-.39-3.384-1.173-.705-.783-1.06-1.957-1.06-3.523V11.02h-1.853V9.384l2.133-1.295 1.117-2.996h2.476v3.02h3.974v2.908h-3.974v6.843c0 .55.154.957.463 1.22.31.26.72.393 1.226.393zM122.913 20.49c0-.71.19-1.248.57-1.61s.937-.547 1.664-.547c.702 0 1.246.187 1.632.56.384.37.576.904.576 1.6 0 .668-.194 1.194-.584 1.58-.39.385-.93.577-1.625.577-.71 0-1.26-.188-1.65-.565-.39-.377-.584-.908-.584-1.594zm3.796-4.34h-3.1l-.646-12.404h4.393l-.648 12.403z"/></g></svg>