<svg xmlns="http://www.w3.org/2000/svg" width="100" height="26.346" viewBox="0 0 100 26.346"><g fill="#F6FAFD"><path d="M15.246 3.447h3.493v8.674c0 1.522.228 2.584.688 3.186.46.603 1.125.903 1.997.903.87 0 1.548-.302 2.032-.904.483-.602.725-1.663.725-3.185V3.448h3.375v8.317c0 2.6-.52 4.49-1.557 5.68s-2.562 1.782-4.574 1.782-3.545-.594-4.6-1.782-1.58-3.08-1.58-5.68V3.447zM44.666 22.672c-.285.143-.662.262-1.128.356-.468.096-1.002.143-1.604.143-1.648 0-3.038-.38-4.17-1.14-1.134-.76-1.978-1.75-2.532-2.97-.824-.175-1.572-.48-2.246-.915-.674-.436-1.248-.994-1.723-1.676-.475-.682-.84-1.47-1.093-2.365-.254-.895-.38-1.89-.38-2.982 0-1.267.17-2.396.51-3.386.342-.99.82-1.822 1.44-2.495.617-.673 1.357-1.188 2.22-1.545s1.82-.535 2.865-.535c1.045 0 2 .178 2.863.535s1.604.875 2.222 1.557c.618.682 1.097 1.517 1.438 2.507s.51 2.112.51 3.363c0 2.092-.443 3.81-1.33 5.157s-2.083 2.233-3.588 2.66c.364.54.855.916 1.474 1.13.618.214 1.26.32 1.925.32.332 0 .645-.027.937-.083s.55-.123.772-.202l.616 2.567zm-11.288-11.55c0 1.57.31 2.81.927 3.72.618.91 1.458 1.367 2.52 1.367 1.06 0 1.9-.457 2.518-1.368.618-.91.927-2.15.927-3.72 0-1.55-.31-2.763-.927-3.635-.618-.87-1.458-1.307-2.52-1.307-1.06 0-1.9.436-2.518 1.307-.618.872-.927 2.084-.927 3.636zM46.162 3.447h4.396c1.188 0 2.258.15 3.21.452.948.3 1.765.764 2.446 1.39.68.625 1.203 1.42 1.568 2.387.363.967.547 2.115.547 3.446 0 1.33-.185 2.487-.548 3.47-.365.982-.88 1.794-1.545 2.436s-1.46 1.12-2.39 1.437c-.925.317-1.96.476-3.1.476H46.16V3.447zm4.183 12.666c.65 0 1.243-.087 1.782-.26.54-.176 1.002-.457 1.39-.845.388-.39.69-.9.903-1.533.215-.633.32-1.417.32-2.353 0-.918-.105-1.69-.32-2.317-.213-.625-.516-1.125-.902-1.497-.39-.372-.852-.638-1.39-.796s-1.134-.238-1.783-.238h-.666v9.838h.665zM60.492 7.155h2.852l.237 2.067h.096c.428-.808.942-1.402 1.545-1.782.604-.38 1.205-.57 1.808-.57.332 0 .605.02.82.06.213.04.407.098.58.177l-.57 3.018c-.22-.063-.427-.11-.616-.143-.19-.032-.412-.047-.666-.047-.443 0-.907.158-1.39.475-.483.317-.884.88-1.2 1.688v6.844h-3.493V7.155zM68.834 15.662c0-1.235.522-2.202 1.568-2.9 1.045-.696 2.732-1.163 5.062-1.4-.032-.524-.19-.94-.476-1.25-.285-.308-.744-.462-1.378-.462-.508 0-1.015.095-1.52.285-.508.19-1.046.45-1.616.784l-1.236-2.306c.76-.46 1.557-.832 2.39-1.117s1.714-.428 2.648-.428c1.52 0 2.682.43 3.48 1.294.8.864 1.2 2.207 1.2 4.028v6.75h-2.85l-.263-1.213h-.07c-.508.442-1.043.804-1.605 1.08-.562.277-1.177.416-1.842.416-.54 0-1.022-.092-1.45-.273s-.792-.436-1.093-.76c-.3-.325-.534-.7-.7-1.13-.166-.426-.25-.894-.25-1.4zm3.326-.262c0 .38.123.662.37.844.244.183.572.273.985.273.41 0 .76-.087 1.045-.262.285-.174.586-.42.903-.736V13.45c-1.252.175-2.115.428-2.59.76-.475.333-.713.73-.713 1.188zM79.67 7.155h3.47l1.14 5.465c.096.587.183 1.165.263 1.735.078.57.166 1.156.26 1.758h.097c.11-.602.217-1.195.32-1.782.103-.585.226-1.155.368-1.71l1.308-5.465h3.018l1.33 5.465c.144.587.27 1.165.38 1.735.11.57.23 1.156.357 1.758h.096c.11-.602.202-1.188.273-1.758s.16-1.148.272-1.735l1.117-5.465h3.23l-2.828 11.787h-4.087l-1.07-4.705c-.126-.555-.236-1.11-.332-1.664-.095-.554-.198-1.148-.31-1.782h-.094c-.112.635-.212 1.23-.3 1.783s-.185 1.11-.296 1.664l-1.045 4.705h-3.994L79.67 7.155zM7.332 3c-1.18.002-2.292.442-3.058 1.208-.645.646-1 1.48-1 2.347l.012 3.503-.003.03.003.018.03 7.435c-.002.342.085.678.247.977L5.77 22.41c.008.01.193.303.315.425.693.692 1.817.692 2.51-.002.14-.138.34-.472.35-.48l2.24-3.84c.162-.3.247-.635.247-.976l-.043-10.99C11.387 4.558 9.605 3 7.33 3.002zm2.81 12.405c-.355-.295-.763-.52-1.2-.685V7.94c.86.448 1.44 1.24 1.44 2.148l-.002.016h.01l.02 5.562c-.087-.088-.17-.18-.27-.26zm-1.71-.832c-.353-.086-.716-.146-1.093-.146-.44 0-.86.08-1.268.197V7.79c.388-.148.814-.236 1.267-.236.386 0 .753.067 1.094.176v6.843zm-2.867.22c-.466.2-.89.47-1.243.814l-.02-5.544c.01-.835.507-1.57 1.264-2.025v6.755zm2.507 7.038c-.03.05-.12.2-.198.29-.298.292-.777.29-1.07-.004-.057-.066-.137-.193-.167-.24l-.99-1.744c.398-.42 1-.702 1.693-.7.704-.002 1.32.282 1.714.715l-.982 1.684zm1.243-2.13c-.49-.474-1.186-.776-1.975-.776-.747 0-1.452.273-1.96.74l-.935-1.65c-.06-.11-.094-.247-.105-.385.204-1.235 1.462-2.19 3-2.19 1.625 0 2.94 1.065 3.025 2.4-.02.065-.04.128-.072.187L9.315 19.7zm1.06-13.15l.005 1.21c-.08-.08-.15-.168-.24-.243-.756-.63-1.75-.977-2.8-.977-1.17 0-2.28.44-3.048 1.203L4.288 6.55c0-.592.25-1.172.705-1.625.577-.578 1.43-.91 2.34-.91.855 0 1.64.275 2.213.775.535.468.83 1.092.83 1.76z"/></g></svg>